#N canvas 0 21 612 711 12;
#X obj 15 18 ctlin;
#X obj 15 47 pack 0 0 0, f 13;
#X msg 15 81 \$3 \$2 \$1;
#X obj 15 107 route 1;
#X obj 15 160 vsl 20 170 0 127 0 0 empty empty empty 0 -9 0 12 #fcfcfc #000000 #000000 0 1;
#X obj 15 132 route 21 22 23 24 25 26 27 28;
#X obj 38 160 vsl 20 170 0 127 0 0 empty empty empty 0 -9 0 12 #fcfcfc #000000 #000000 0 1;
#X obj 61 160 vsl 20 170 0 127 0 0 empty empty empty 0 -9 0 12 #fcfcfc #000000 #000000 0 1;
#X obj 84 160 vsl 20 170 0 127 0 0 empty empty empty 0 -9 0 12 #fcfcfc #000000 #000000 0 1;
#X obj 107 159 vsl 20 170 0 127 0 0 empty empty empty 0 -9 0 12 #fcfcfc #000000 #000000 0 1;
#X obj 130 159 vsl 20 170 0 127 0 0 empty empty empty 0 -9 0 12 #fcfcfc #000000 #000000 0 1;
#X obj 153 161 vsl 20 170 0 127 0 0 empty empty empty 0 -9 0 12 #fcfcfc #000000 #000000 0 1;
#X obj 176 161 vsl 20 170 0 127 0 0 empty empty empty 0 -9 0 12 #fcfcfc #000000 #000000 0 1;
#X floatatom 206 185 5 0 0 0 - - - 0;
#X obj 205 161 / 127;
#X obj 205 208 * 20000;
#X floatatom 204 236 5 0 0 0 - - - 0;
#X obj 630 37 pack 0 0 0, f 13;
#X obj 630 89 route 1;
#X obj 630 8 notein;
#X msg 630 62 \$3 \$1 \$2;
#X obj 631 114 unpack 0 0;
#X obj 426 519 dac~;
#X obj 208 328 print;
#X obj 280 36 route 1;
#X obj 280 63 vsl 20 170 0 127 0 0 empty empty empty 0 -9 0 12 #fcfcfc #000000 #000000 0 1;
#X obj 280 241 / 127;
#X obj 278 309 line~;
#X msg 278 275 \$1 10;
#X obj 631 170 pack 0 0 0;
#X obj 425 321 unpack 0 0;
#X obj 522 320 unpack 0 0;
#X obj 612 229 route 1 2 3 4 5 6 7 8;
#X obj 421 442 lop~;
#X obj 278 363 pow~ 2;
#X obj 286 417 *~ 10000;
#X msg 640 441 50;
#X obj 419 357 karplusvoice;
#X obj 524 360 karplusvoice;
#X obj 636 320 unpack 0 0;
#X obj 733 319 unpack 0 0;
#X obj 630 356 karplusvoice;
#X obj 735 359 karplusvoice;
#X obj 799 210 s brightness;
#X obj 834 186 s open;
#X obj 834 4 vsl 20 170 0 1 0 0 empty empty empty 0 -9 0 12 #fcfcfc #000000 #000000 0 1;
#X obj 800 11 vsl 20 170 0 1 0 0 empty empty empty 0 -9 0 12 #fcfcfc #000000 #000000 0 1;
#X obj 91 388 / 127;
#X obj 141 386 / 127;
#X msg 735 109 clear;
#X msg 561 441 98;
#X obj 476 478 rev3~, f 25;
#X obj 843 314 unpack 0 0;
#X obj 940 313 unpack 0 0;
#X obj 837 350 karplusvoice;
#X obj 942 353 karplusvoice;
#X obj 1054 313 unpack 0 0;
#X obj 1151 312 unpack 0 0;
#X obj 1048 349 karplusvoice;
#X obj 1153 352 karplusvoice;
#X obj 631 142 poly 8;
#X obj 420 405 *~ 2, f 13;
#X connect 0 0 1 0;
#X connect 0 1 1 1;
#X connect 0 2 1 2;
#X connect 1 0 2 0;
#X connect 2 0 3 0;
#X connect 3 0 5 0;
#X connect 3 0 23 0;
#X connect 3 0 24 0;
#X connect 4 0 47 0;
#X connect 5 0 4 0;
#X connect 5 1 6 0;
#X connect 5 2 7 0;
#X connect 5 3 8 0;
#X connect 5 4 9 0;
#X connect 5 5 10 0;
#X connect 5 6 11 0;
#X connect 5 7 12 0;
#X connect 5 7 14 0;
#X connect 6 0 48 0;
#X connect 13 0 15 0;
#X connect 14 0 13 0;
#X connect 15 0 16 0;
#X connect 17 0 20 0;
#X connect 18 0 21 0;
#X connect 19 0 17 0;
#X connect 19 1 17 1;
#X connect 19 2 17 2;
#X connect 20 0 18 0;
#X connect 21 0 60 0;
#X connect 21 1 60 1;
#X connect 24 0 25 0;
#X connect 25 0 26 0;
#X connect 26 0 28 0;
#X connect 27 0 34 0;
#X connect 28 0 27 0;
#X connect 29 0 32 0;
#X connect 30 0 37 0;
#X connect 30 1 37 1;
#X connect 31 0 38 0;
#X connect 31 1 38 1;
#X connect 32 0 30 0;
#X connect 32 1 31 0;
#X connect 32 2 39 0;
#X connect 32 3 40 0;
#X connect 32 4 52 0;
#X connect 32 5 53 0;
#X connect 32 6 56 0;
#X connect 32 7 57 0;
#X connect 33 0 22 0;
#X connect 33 0 22 1;
#X connect 33 0 51 0;
#X connect 33 0 51 1;
#X connect 34 0 35 0;
#X connect 35 0 33 1;
#X connect 36 0 51 5;
#X connect 37 0 61 0;
#X connect 38 0 61 0;
#X connect 39 0 41 0;
#X connect 39 1 41 1;
#X connect 40 0 42 0;
#X connect 40 1 42 1;
#X connect 41 0 61 0;
#X connect 42 0 61 0;
#X connect 45 0 44 0;
#X connect 46 0 43 0;
#X connect 47 0 46 0;
#X connect 48 0 45 0;
#X connect 49 0 60 0;
#X connect 50 0 51 2;
#X connect 50 0 51 3;
#X connect 51 0 22 0;
#X connect 51 1 22 1;
#X connect 52 0 54 0;
#X connect 52 1 54 1;
#X connect 53 0 55 0;
#X connect 53 1 55 1;
#X connect 54 0 61 0;
#X connect 55 0 61 0;
#X connect 56 0 58 0;
#X connect 56 1 58 1;
#X connect 57 0 59 0;
#X connect 57 1 59 1;
#X connect 58 0 61 0;
#X connect 59 0 61 0;
#X connect 60 0 29 0;
#X connect 60 1 29 1;
#X connect 60 2 29 2;
#X connect 61 0 33 0;
